<?xml version="1.0" encoding="utf-8"?>
<!-- Generator: Adobe Illustrator 16.0.0, SVG Export Plug-In . SVG Version: 6.00 Build 0)  -->
<!DOCTYPE svg PUBLIC "-//W3C//DTD SVG 1.1//EN" "http://www.w3.org/Graphics/SVG/1.1/DTD/svg11.dtd">
<svg version="1.1" id="Layer_1" xmlns="http://www.w3.org/2000/svg" xmlns:xlink="http://www.w3.org/1999/xlink" x="0px" y="0px"
	 width="1000px" height="265.951px" viewBox="0 0 1000 265.951" enable-background="new 0 0 1000 265.951" xml:space="preserve">
<g>
	<polygon fill="#2E3192" points="511.558,0.82 493.04,21.592 493.155,123.111 517.343,146.199 551.465,146.227 574.749,124.042 
		574.551,70.418 532.978,70.418 532.95,96.837 544.324,96.837 544.324,119.217 522.958,119.273 522.929,28.168 544.381,28.027 
		544.407,54.445 573.452,54.386 573.395,21.141 554.23,0.678 	"/>
	<polygon fill="#2E3192" points="581.438,1.102 581.721,125.171 605.005,147.355 643.728,147.387 663.655,127.035 663.569,1.273 
		634.131,1.273 634.076,119.643 611.329,119.643 611.355,1.102 	"/>
	<path fill="#2E3192" d="M670.964,1.779l-0.141,145.633h29.295l0.029-78.602l26.164,78.488h26.783l-0.026-117.268l221.67-0.143
		c6.012,0,11.486-7.93,15.098-12.871C993.053,12.645,1000,1.693,1000,1.693H724.167l0.028,74.625l-24.894-74.51L670.964,1.779z"/>
	<path fill="#2E3192" d="M329.654,118.372h22.747l-0.084-90.288h-22.635L329.654,118.372z M298.071,0.34l-0.113,21.449
		l23.229-20.857h39.37l20.322,20.236l0.114,105.558l-20.915,19.612l-38.751-0.026l-21.592-21.928V27.999l-21.563-0.142
		l0.141,118.566l-30.313-0.112v-118.2L28.309,28.084c-11.374,0-12.136-1.158-19.868-13.35L0.678,3.021L0,0L298.071,0.34z"/>
	<path fill="#2E3192" d="M417.431,28.111l0.084,41.18l19.304-0.029l0.029-41.121L417.431,28.111z M466.851,22.326l0.027,53.229
		l-24.44,21.281l-24.218,0.027v49.617l-29.127-0.057L389.036,0.679l53.767-0.058L466.851,22.326z"/>
	<path fill="#ED1F24" d="M36.634,59.383c2.823,4.461,10.754,7.311,16.173,7.311l182.637,0.057V39.768L24.808,39.965L36.634,59.383z"
		/>
	<path fill="#ED1F24" d="M975.245,41.349L764.948,41.46l0.03,27.352h182.269c7.535,0,11.657-3.05,15.241-6.973L975.245,41.349z"/>
	<path fill="#ED1F24" d="M235.443,105.698H77.05c-5.164,0-13.01-2.937-15.972-7.792l-11.8-18.71h186.165V105.698z"/>
	<path fill="#ED1F24" d="M950.634,81.002l-13.096,20.435c-1.863,3.049-7.819,5.928-11.515,5.928l-160.906,0.111V81.144
		L950.634,81.002z"/>
	<path fill="#ED1F24" d="M83.374,132.877c7.31,11.515,15.27,13.462,22.465,13.462l129.774-0.029v-27.066H74.85L83.374,132.877z"/>
	<path fill="#ED1F24" d="M925.544,119.978l-160.51-0.026l-0.112,27.235h133.471c5.758,0,11.994-2.626,14.109-5.983L925.544,119.978z
		"/>
	<polygon fill="#2E3192" points="480.003,156.104 493.747,198.44 537.72,198.44 502.382,224.067 516.241,265.951 480.538,240.354 
		445.175,265.302 457.962,224.067 423.047,198.668 466.538,198.61 	"/>
	<path fill="#2E3192" d="M99.828,158.729c3.527,5.814,6.181,9.851,8.13,12.845c7.532,11.541,11.288,13.66,22.521,13.714
		l327.112-0.026l8.384-26.418L99.828,158.729z"/>
	<path fill="#2E3192" d="M900.621,159.772l-406.111-0.28l9.511,26.701l370.042-0.058c7.677,0,11.375-1.836,18.345-12.956
		L900.621,159.772z"/>
</g>
</svg>
